<?xml version="1.0" standalone="no"?>
<!DOCTYPE svg PUBLIC "-//W3C//DTD SVG 20010904//EN"
 "http://www.w3.org/TR/2001/REC-SVG-20010904/DTD/svg10.dtd">
<svg version="1.0" xmlns="http://www.w3.org/2000/svg"
 width="200.000000pt" height="200.000000pt" viewBox="0 0 200.000000 200.000000"
 preserveAspectRatio="xMidYMid meet">

<g transform="translate(0.000000,200.000000) scale(0.100000,-0.100000)"
fill="#000000" stroke="none">
<path d="M227 1145 c-70 -73 -127 -141 -127 -150 0 -10 58 -76 129 -148 129
-131 129 -131 150 -113 12 11 21 25 21 31 0 7 -49 59 -110 115 -60 56 -110
110 -110 119 0 9 50 64 112 123 l113 107 -25 25 -25 25 -128 -134z"/>
<path d="M630 1160 c0 -5 7 -10 15 -10 8 0 15 5 15 10 0 6 -7 10 -15 10 -8 0
-15 -4 -15 -10z"/>
<path d="M490 1085 c0 -43 4 -75 10 -75 6 0 10 32 10 75 0 43 -4 75 -10 75 -6
0 -10 -32 -10 -75z"/>
<path d="M553 1123 c-18 -19 -33 -36 -33 -38 0 -1 15 -19 34 -40 42 -45 71
-44 32 2 -14 17 -26 33 -26 37 0 3 14 21 31 41 26 29 28 35 13 34 -11 -1 -34
-17 -51 -36z"/>
<path d="M1213 1138 l-23 -22 57 -58 57 -58 -59 -60 c-58 -58 -58 -60 -40 -80
10 -11 23 -20 30 -20 6 0 43 33 81 72 68 72 70 73 115 69 39 -2 49 1 63 20 9
13 16 31 16 41 0 20 17 23 40 8 12 -7 12 -12 0 -35 -10 -18 -11 -33 -4 -52 18
-51 174 -147 174 -107 0 8 -3 14 -7 14 -15 0 -115 61 -110 67 3 3 19 -4 35
-16 16 -11 41 -25 56 -31 41 -15 32 7 -12 29 -21 11 -45 27 -52 37 -13 15 -10
20 24 50 22 19 46 34 53 34 8 0 13 6 10 13 -2 8 -27 12 -73 12 -38 1 -79 7
-92 14 -31 17 -61 5 -68 -27 -9 -38 -30 -52 -64 -42 -16 4 -30 6 -33 4 -2 -3
-37 30 -78 71 l-74 76 -22 -23z m452 -98 c-3 -5 -11 -10 -16 -10 -6 0 -7 5 -4
10 3 6 11 10 16 10 6 0 7 -4 4 -10z m-31 -19 c3 -4 -3 -16 -13 -25 -21 -19
-37 -7 -27 19 6 16 32 20 40 6z m-59 -30 c-3 -5 -1 -12 5 -16 5 -3 10 -12 10
-18 0 -7 -7 -3 -15 7 -13 17 -12 36 1 36 3 0 3 -4 -1 -9z"/>
<path d="M630 1065 c0 -30 4 -55 9 -55 13 0 21 27 21 71 0 28 -4 39 -15 39
-12 0 -15 -13 -15 -55z"/>
<path d="M687 1113 c-11 -10 -8 -103 3 -103 6 0 10 18 10 40 0 38 2 40 30 40
20 0 30 5 30 15 0 10 -10 15 -33 15 -19 0 -37 -3 -40 -7z"/>
<path d="M790 1111 c0 -5 14 -11 31 -15 26 -5 30 -10 27 -33 -2 -22 -9 -29
-30 -31 -20 -2 -28 1 -28 12 0 10 9 16 25 16 14 0 25 5 25 10 0 6 -13 10 -30
10 -34 0 -53 -25 -39 -52 13 -24 84 -25 93 -2 10 26 7 69 -6 82 -14 14 -68 16
-68 3z"/>
<path d="M890 1065 c0 -30 5 -55 10 -55 6 0 10 18 10 40 0 38 2 40 30 40 28 0
30 -2 30 -40 0 -22 5 -40 10 -40 14 0 12 84 -2 98 -7 7 -29 12 -50 12 l-38 0
0 -55z"/>
<path d="M1800 1024 c0 -4 16 -24 36 -46 45 -50 44 -86 -3 -108 -41 -19 -45
-43 -5 -34 33 7 72 48 72 75 0 31 -27 75 -59 98 -30 22 -41 26 -41 15z"/>
<path d="M460 921 c0 -65 3 -81 15 -81 10 0 15 10 15 30 0 29 1 30 50 30 49 0
50 -1 50 -30 0 -16 5 -30 10 -30 6 0 10 33 10 80 0 78 -16 112 -22 48 -3 -32
-5 -33 -50 -36 -46 -3 -47 -3 -50 29 -2 18 -9 34 -15 37 -10 3 -13 -17 -13
-77z"/>
<path d="M640 922 c0 -60 22 -82 81 -82 l49 0 0 60 c0 33 -4 60 -10 60 -5 0
-10 -21 -10 -46 l0 -45 -37 3 c-37 3 -38 4 -41 46 -4 56 -32 60 -32 4z"/>
<path d="M806 953 c-3 -3 -6 -30 -6 -60 0 -40 4 -53 15 -53 11 0 15 12 15 45
0 41 2 45 25 45 23 0 25 -4 25 -45 0 -33 4 -45 15 -45 11 0 15 12 15 45 0 33
4 45 15 45 11 0 15 -12 15 -45 0 -33 4 -45 15 -45 23 0 21 96 -2 109 -20 10
-137 14 -147 4z"/>
<path d="M1020 945 c0 -10 11 -15 35 -15 32 0 35 -2 35 -30 0 -28 -3 -30 -35
-30 -19 0 -35 5 -35 10 0 6 14 10 30 10 21 0 30 5 30 16 0 11 -9 14 -36 12
-44 -4 -65 -29 -48 -55 13 -22 89 -30 110 -12 22 18 18 86 -5 99 -30 16 -81
13 -81 -5z"/>
<path d="M1851 913 c-1 -7 -12 -15 -26 -19 -14 -3 -25 -10 -25 -16 0 -10 39
-1 54 12 4 5 6 14 3 22 -4 9 -6 9 -6 1z"/>
</g>
</svg>
